<svg width="201" height="36" viewBox="0 0 201 36" fill="none" xmlns="http://www.w3.org/2000/svg">
<g clip-path="url(#clip0)">
<path d="M9.33879 13.2511L4.07221 17.991L9.33879 22.7309L14.6054 17.991L9.33879 13.2511Z" fill="#D7B399"/>
<path d="M19.9944 3.67689L14.7278 8.41681L19.9944 13.1567L25.261 8.41681L19.9944 3.67689Z" fill="#D7B399"/>
<path d="M19.9914 22.8544L14.7248 27.5944L19.9913 32.3343L25.2579 27.5944L19.9914 22.8544Z" fill="#D7B399"/>
<path d="M30.647 13.254L25.3804 17.9939L30.647 22.7338L35.9136 17.9939L30.647 13.254Z" fill="#D7B399"/>
<path d="M28.6102 11.418L23.3436 16.1579L25.3828 17.9931L30.6494 13.2532L28.6102 11.418Z" fill="#D7B399"/>
<path d="M17.9547 21.018L12.6881 25.7579L14.7273 27.5931L19.9938 22.8532L17.9547 21.018Z" fill="#D7B399"/>
<path d="M25.2587 8.41767L19.9921 13.1576L22.0313 14.9928L27.2978 10.2529L25.2587 8.41767Z" fill="#D7B399"/>
<path d="M14.6177 18.0048L9.35116 22.7447L11.3903 24.5799L16.6569 19.84L14.6177 18.0048Z" fill="#D7B399"/>
<path d="M11.3788 11.4178L9.33961 13.2531L14.6062 17.993L16.6453 16.1577L11.3788 11.4178Z" fill="#D7B399"/>
<path d="M14.727 8.41459L12.6879 10.2498L17.9544 14.9897L19.9936 13.1545L14.727 8.41459Z" fill="#D7B399"/>
<path d="M25.3796 17.9914L23.3405 19.8267L28.607 24.5666L30.6462 22.7313L25.3796 17.9914Z" fill="#D7B399"/>
<path d="M22.046 21.0078L20.0069 22.8431L25.2734 27.583L27.3126 25.7478L22.046 21.0078Z" fill="#D7B399"/>
<path d="M27.3029 29.4274L25.2697 27.5975L20 32.3403L14.7303 27.5975L12.6971 29.4274L20 36L27.3029 29.4274Z" fill="#D7B399"/>
<path d="M9.3361 13.2572L7.3029 11.4274L0 18L7.3029 24.5726L9.3361 22.7427L4.06639 18L9.3361 13.2572Z" fill="#D7B399"/>
<path d="M32.6971 11.4274L30.6639 13.2572L35.9336 18L30.6639 22.7427L32.6971 24.5726L40 18L32.6971 11.4274Z" fill="#D7B399"/>
<path d="M25.2697 8.40249L27.3029 6.57261L20 0L12.6971 6.57261L14.7303 8.40249L20 3.65975L25.2697 8.40249Z" fill="#D7B399"/>
</g>
<path d="M65.472 14.768H60.096V11.6H74.736V14.768H69.36V28.4H65.472V14.768ZM93.4359 11.6V28.4H89.5479V21.512H81.9159V28.4H78.0279V11.6H81.9159V18.224H89.5479V11.6H93.4359ZM111.619 25.28V28.4H98.6108V11.6H111.307V14.72H102.475V18.368H110.275V21.392H102.475V25.28H111.619ZM123.909 11.6H127.797V25.232H136.221V28.4H123.909V11.6ZM147.448 28.688C145.704 28.688 144.128 28.312 142.72 27.56C141.328 26.808 140.232 25.776 139.432 24.464C138.648 23.136 138.256 21.648 138.256 20C138.256 18.352 138.648 16.872 139.432 15.56C140.232 14.232 141.328 13.192 142.72 12.44C144.128 11.688 145.704 11.312 147.448 11.312C149.192 11.312 150.76 11.688 152.152 12.44C153.544 13.192 154.64 14.232 155.44 15.56C156.24 16.872 156.64 18.352 156.64 20C156.64 21.648 156.24 23.136 155.44 24.464C154.64 25.776 153.544 26.808 152.152 27.56C150.76 28.312 149.192 28.688 147.448 28.688ZM147.448 25.376C148.44 25.376 149.336 25.152 150.136 24.704C150.936 24.24 151.56 23.6 152.008 22.784C152.472 21.968 152.704 21.04 152.704 20C152.704 18.96 152.472 18.032 152.008 17.216C151.56 16.4 150.936 15.768 150.136 15.32C149.336 14.856 148.44 14.624 147.448 14.624C146.456 14.624 145.56 14.856 144.76 15.32C143.96 15.768 143.328 16.4 142.864 17.216C142.416 18.032 142.192 18.96 142.192 20C142.192 21.04 142.416 21.968 142.864 22.784C143.328 23.6 143.96 24.24 144.76 24.704C145.56 25.152 146.456 25.376 147.448 25.376ZM168.898 28.688C167.154 28.688 165.578 28.312 164.17 27.56C162.778 26.808 161.682 25.776 160.882 24.464C160.098 23.136 159.706 21.648 159.706 20C159.706 18.352 160.098 16.872 160.882 15.56C161.682 14.232 162.778 13.192 164.17 12.44C165.578 11.688 167.154 11.312 168.898 11.312C170.642 11.312 172.21 11.688 173.602 12.44C174.994 13.192 176.09 14.232 176.89 15.56C177.69 16.872 178.09 18.352 178.09 20C178.09 21.648 177.69 23.136 176.89 24.464C176.09 25.776 174.994 26.808 173.602 27.56C172.21 28.312 170.642 28.688 168.898 28.688ZM168.898 25.376C169.89 25.376 170.786 25.152 171.586 24.704C172.386 24.24 173.01 23.6 173.458 22.784C173.922 21.968 174.154 21.04 174.154 20C174.154 18.96 173.922 18.032 173.458 17.216C173.01 16.4 172.386 15.768 171.586 15.32C170.786 14.856 169.89 14.624 168.898 14.624C167.906 14.624 167.01 14.856 166.21 15.32C165.41 15.768 164.778 16.4 164.314 17.216C163.866 18.032 163.642 18.96 163.642 20C163.642 21.04 163.866 21.968 164.314 22.784C164.778 23.6 165.41 24.24 166.21 24.704C167.01 25.152 167.906 25.376 168.898 25.376ZM189.484 11.6C190.972 11.6 192.26 11.848 193.348 12.344C194.452 12.84 195.3 13.544 195.892 14.456C196.484 15.368 196.78 16.448 196.78 17.696C196.78 18.928 196.484 20.008 195.892 20.936C195.3 21.848 194.452 22.552 193.348 23.048C192.26 23.528 190.972 23.768 189.484 23.768H186.1V28.4H182.212V11.6H189.484ZM189.268 20.6C190.436 20.6 191.324 20.352 191.932 19.856C192.54 19.344 192.844 18.624 192.844 17.696C192.844 16.752 192.54 16.032 191.932 15.536C191.324 15.024 190.436 14.768 189.268 14.768H186.1V20.6H189.268Z" fill="#212121"/>
<defs>
<clipPath id="clip0">
<rect width="40" height="36" fill="white"/>
</clipPath>
</defs>
</svg>
