<svg width="185" height="40" viewBox="0 0 185 40" fill="none" xmlns="http://www.w3.org/2000/svg">
<rect width="185" height="40" fill="#D7B399"/>
<path d="M44.8563 16.2V26H43.4843V17.418H37.8003V26H36.4143V16.2H44.8563ZM52.3223 26.112C51.333 26.112 50.4417 25.8973 49.6483 25.468C48.855 25.0293 48.2297 24.4273 47.7723 23.662C47.3243 22.8967 47.1003 22.0427 47.1003 21.1C47.1003 20.1573 47.3243 19.3033 47.7723 18.538C48.2297 17.7727 48.855 17.1753 49.6483 16.746C50.4417 16.3073 51.333 16.088 52.3223 16.088C53.3023 16.088 54.189 16.3073 54.9823 16.746C55.7757 17.1753 56.3963 17.7727 56.8443 18.538C57.2923 19.294 57.5163 20.148 57.5163 21.1C57.5163 22.052 57.2923 22.9107 56.8443 23.676C56.3963 24.432 55.7757 25.0293 54.9823 25.468C54.189 25.8973 53.3023 26.112 52.3223 26.112ZM52.3223 24.866C53.041 24.866 53.685 24.7027 54.2543 24.376C54.833 24.0493 55.2857 23.6013 55.6123 23.032C55.9483 22.4533 56.1163 21.8093 56.1163 21.1C56.1163 20.3907 55.9483 19.7513 55.6123 19.182C55.2857 18.6033 54.833 18.1507 54.2543 17.824C53.685 17.4973 53.041 17.334 52.3223 17.334C51.6037 17.334 50.9503 17.4973 50.3623 17.824C49.7837 18.1507 49.3263 18.6033 48.9903 19.182C48.6637 19.7513 48.5003 20.3907 48.5003 21.1C48.5003 21.8093 48.6637 22.4533 48.9903 23.032C49.3263 23.6013 49.7837 24.0493 50.3623 24.376C50.9503 24.7027 51.6037 24.866 52.3223 24.866ZM68.8441 24.782V28.142H67.5421V26H59.4781L59.4641 28.142H58.1621L58.1761 24.782H58.6521C59.2681 24.7447 59.7021 24.2593 59.9541 23.326C60.2061 22.3833 60.3601 21.058 60.4161 19.35L60.5141 16.2H67.4021V24.782H68.8441ZM61.6481 19.476C61.6014 20.8573 61.4894 22.0007 61.3121 22.906C61.1441 23.8113 60.8687 24.4367 60.4861 24.782H66.0161V17.418H61.7181L61.6481 19.476ZM79.2 16.2V26H77.828V17.418H72.144V26H70.758V16.2H79.2ZM82.2561 16.2H83.6421V23.76L89.4381 16.2H90.7261V26H89.3541V18.454L83.5441 26H82.2561V16.2ZM98.1635 26.112C97.1835 26.112 96.2968 25.8973 95.5035 25.468C94.7195 25.0293 94.1035 24.432 93.6555 23.676C93.2075 22.9107 92.9835 22.052 92.9835 21.1C92.9835 20.148 93.2075 19.294 93.6555 18.538C94.1035 17.7727 94.7241 17.1753 95.5175 16.746C96.3108 16.3073 97.1975 16.088 98.1775 16.088C98.9428 16.088 99.6428 16.2187 100.277 16.48C100.912 16.732 101.453 17.11 101.901 17.614L100.991 18.496C100.254 17.7213 99.3348 17.334 98.2335 17.334C97.5055 17.334 96.8475 17.4973 96.2595 17.824C95.6715 18.1507 95.2095 18.6033 94.8735 19.182C94.5468 19.7513 94.3835 20.3907 94.3835 21.1C94.3835 21.8093 94.5468 22.4533 94.8735 23.032C95.2095 23.6013 95.6715 24.0493 96.2595 24.376C96.8475 24.7027 97.5055 24.866 98.2335 24.866C99.3255 24.866 100.245 24.474 100.991 23.69L101.901 24.572C101.453 25.076 100.907 25.4587 100.263 25.72C99.6288 25.9813 98.9288 26.112 98.1635 26.112ZM109.968 23.55H104.76L103.682 26H102.24L106.678 16.2H108.064L112.516 26H111.046L109.968 23.55ZM109.478 22.43L107.364 17.628L105.25 22.43H109.478ZM120.449 17.418H117.089V26H115.717V17.418H112.371V16.2H120.449V17.418ZM126.449 19.616C127.615 19.616 128.507 19.8773 129.123 20.4C129.748 20.9227 130.061 21.6927 130.061 22.71C130.061 23.7833 129.725 24.6 129.053 25.16C128.39 25.72 127.438 26 126.197 26H122.151V16.2H123.537V19.616H126.449ZM126.141 24.894C126.953 24.894 127.573 24.712 128.003 24.348C128.441 23.9747 128.661 23.438 128.661 22.738C128.661 21.394 127.821 20.722 126.141 20.722H123.537V24.894H126.141ZM136.513 26.112C135.533 26.112 134.646 25.8973 133.853 25.468C133.069 25.0293 132.453 24.432 132.005 23.676C131.557 22.9107 131.333 22.052 131.333 21.1C131.333 20.148 131.557 19.294 132.005 18.538C132.453 17.7727 133.074 17.1753 133.867 16.746C134.66 16.3073 135.547 16.088 136.527 16.088C137.292 16.088 137.992 16.2187 138.627 16.48C139.262 16.732 139.803 17.11 140.251 17.614L139.341 18.496C138.604 17.7213 137.684 17.334 136.583 17.334C135.855 17.334 135.197 17.4973 134.609 17.824C134.021 18.1507 133.559 18.6033 133.223 19.182C132.896 19.7513 132.733 20.3907 132.733 21.1C132.733 21.8093 132.896 22.4533 133.223 23.032C133.559 23.6013 134.021 24.0493 134.609 24.376C135.197 24.7027 135.855 24.866 136.583 24.866C137.675 24.866 138.594 24.474 139.341 23.69L140.251 24.572C139.803 25.076 139.257 25.4587 138.613 25.72C137.978 25.9813 137.278 26.112 136.513 26.112ZM149.129 16.2V26H147.757V23.144H145.055C144.887 23.144 144.761 23.1393 144.677 23.13L142.717 26H141.233L143.403 22.892C142.703 22.6587 142.167 22.2713 141.793 21.73C141.42 21.1793 141.233 20.512 141.233 19.728C141.233 18.6173 141.588 17.754 142.297 17.138C143.016 16.5127 143.982 16.2 145.195 16.2H149.129ZM142.647 19.714C142.647 20.442 142.857 21.002 143.277 21.394C143.707 21.7767 144.337 21.968 145.167 21.968H147.757V17.418H145.251C144.411 17.418 143.767 17.614 143.319 18.006C142.871 18.398 142.647 18.9673 142.647 19.714Z" fill="white"/>
</svg>
